<svg width="50" height="50" viewBox="0 0 50 50" fill="none" xmlns="http://www.w3.org/2000/svg">
<circle cx="25" cy="25" r="25" fill="#EAEAEA"/>
<path d="M28.1 16C26.6141 16 25.2141 16.4528 24.1835 17.4835C23.1528 18.5141 22.7 19.9141 22.7 21.4V23.2H21.8C20.8059 23.2 20 24.0059 20 25C20 25.9941 20.8059 26.8 21.8 26.8H22.7V32.2C22.7 33.1941 23.5059 34 24.5 34C25.4941 34 26.3 33.1941 26.3 32.2V26.8H28.1C29.0941 26.8 29.9 25.9941 29.9 25C29.9 24.0059 29.0941 23.2 28.1 23.2H26.3V21.4C26.3 20.6359 26.5222 20.2359 26.729 20.029C26.9359 19.8222 27.3359 19.6 28.1 19.6H29.9C30.8941 19.6 31.7 18.7941 31.7 17.8C31.7 16.8059 30.8941 16 29.9 16H28.1Z" fill="#3D3D3D"/>
</svg>
