<svg width="50" height="50" viewBox="0 0 50 50" fill="none" xmlns="http://www.w3.org/2000/svg">
<circle cx="25" cy="25" r="25" fill="#EAEAEA"/>
<path d="M24.999 16C30.5229 16 35 19.4895 35 23.7952C35 28.1 30.5229 31.5895 25 31.5895C24.4501 31.5898 23.9007 31.5548 23.3552 31.4848L19.1571 34.2305C18.68 34.4829 18.5114 34.4552 18.7076 33.8371L19.5571 30.3343C16.8143 28.9438 15 26.5343 15 23.7952C15 19.4905 19.4762 16 25 16H24.999ZM30.6257 23.6762L32.0257 22.32C32.1065 22.2361 32.1516 22.1241 32.1514 22.0077C32.1513 21.8912 32.1059 21.7793 32.025 21.6956C31.944 21.6119 31.8337 21.5629 31.7173 21.5589C31.6009 21.555 31.4875 21.5963 31.401 21.6743L29.5648 23.4514V21.9829C29.5648 21.8636 29.5174 21.7493 29.4331 21.665C29.3488 21.5807 29.2345 21.5333 29.1152 21.5333C28.996 21.5333 28.8817 21.5807 28.7974 21.665C28.7131 21.7493 28.6657 21.8636 28.6657 21.9829V24.4181C28.6489 24.4876 28.6489 24.5601 28.6657 24.6295V26C28.6657 26.1192 28.7131 26.2336 28.7974 26.3179C28.8817 26.4022 28.996 26.4495 29.1152 26.4495C29.2345 26.4495 29.3488 26.4022 29.4331 26.3179C29.5174 26.2336 29.5648 26.1192 29.5648 26V24.7019L29.9714 24.3086L31.3314 26.2448C31.3654 26.2931 31.4085 26.3343 31.4584 26.3659C31.5083 26.3976 31.5639 26.4191 31.6221 26.4293C31.6803 26.4395 31.7399 26.4381 31.7975 26.4252C31.8552 26.4123 31.9098 26.3882 31.9581 26.3543C32.0064 26.3203 32.0476 26.2772 32.0793 26.2273C32.1109 26.1774 32.1325 26.1218 32.1426 26.0636C32.1528 26.0054 32.1514 25.9458 32.1385 25.8882C32.1257 25.8305 32.1016 25.776 32.0676 25.7276L30.6257 23.6752V23.6762ZM27.8086 25.5086H26.4181V21.9971C26.4128 21.8816 26.3631 21.7726 26.2795 21.6927C26.1959 21.6129 26.0847 21.5683 25.969 21.5683C25.8534 21.5683 25.7422 21.6129 25.6586 21.6927C25.575 21.7726 25.5253 21.8816 25.52 21.9971V25.9581C25.52 26.2057 25.72 26.4076 25.9686 26.4076H27.8086C27.9278 26.4076 28.0421 26.3603 28.1264 26.276C28.2107 26.1917 28.2581 26.0773 28.2581 25.9581C28.2581 25.8389 28.2107 25.7245 28.1264 25.6402C28.0421 25.5559 27.9278 25.5086 27.8086 25.5086ZM22.2305 24.4695L22.8933 22.8429L23.501 24.4686L22.2305 24.4695ZM24.6333 24.9333L24.6352 24.9181C24.635 24.8048 24.5918 24.6959 24.5143 24.6133L23.5181 21.9467C23.4763 21.8196 23.3968 21.7083 23.2901 21.6276C23.1834 21.5469 23.0546 21.5008 22.921 21.4952C22.7863 21.4946 22.6547 21.5351 22.5436 21.6111C22.4325 21.6872 22.3472 21.7952 22.299 21.921L20.7162 25.8019C20.6711 25.9123 20.6717 26.0361 20.7179 26.146C20.7641 26.2559 20.852 26.343 20.9624 26.3881C21.0728 26.4332 21.1965 26.4326 21.3065 26.3864C21.4164 26.3402 21.5035 26.2523 21.5486 26.1419L21.8648 25.3676H23.8362L24.12 26.1295C24.1394 26.1865 24.17 26.239 24.21 26.2839C24.25 26.3288 24.2986 26.3652 24.353 26.391C24.4073 26.4168 24.4663 26.4314 24.5264 26.434C24.5865 26.4365 24.6465 26.427 24.7028 26.406C24.7592 26.3849 24.8107 26.3528 24.8544 26.3115C24.8981 26.2702 24.9331 26.2205 24.9573 26.1654C24.9814 26.1103 24.9943 26.0509 24.9951 25.9908C24.9959 25.9306 24.9846 25.8709 24.9619 25.8152L24.6333 24.9333ZM21.4695 22.0019C21.4695 21.8828 21.4223 21.7687 21.3382 21.6844C21.2541 21.6001 21.14 21.5526 21.021 21.5524H17.9305C17.8113 21.5524 17.6969 21.5997 17.6126 21.684C17.5283 21.7683 17.481 21.8827 17.481 22.0019C17.481 22.1211 17.5283 22.2355 17.6126 22.3198C17.6969 22.4041 17.8113 22.4514 17.9305 22.4514H19.0352V26.0095C19.0352 26.1287 19.0826 26.2431 19.1669 26.3274C19.2512 26.4117 19.3655 26.459 19.4848 26.459C19.604 26.459 19.7183 26.4117 19.8026 26.3274C19.8869 26.2431 19.9343 26.1287 19.9343 26.0095V22.4514H21.02C21.1392 22.4514 21.2536 22.4041 21.3379 22.3198C21.4222 22.2355 21.4695 22.1211 21.4695 22.0019Z" fill="#3D3D3D"/>
</svg>
