<svg width="16" height="16" viewBox="0 0 16 16" fill="none" xmlns="http://www.w3.org/2000/svg">
<path d="M13.8333 8.83333V13C13.8333 13.4583 13.4583 13.8333 13 13.8333H3C2.54167 13.8333 2.16667 13.4583 2.16667 13V8.83333C2.16667 8.375 1.79167 8 1.33333 8C0.875 8 0.5 8.375 0.5 8.83333V13.8333C0.5 14.75 1.25 15.5 2.16667 15.5H13.8333C14.75 15.5 15.5 14.75 15.5 13.8333V8.83333C15.5 8.375 15.125 8 14.6667 8C14.2083 8 13.8333 8.375 13.8333 8.83333Z" fill="#3D3D3D"/>
<path d="M9.16002 3.34377L10.7267 4.91043C10.8038 4.98758 10.8954 5.04878 10.9962 5.09054C11.097 5.13229 11.2051 5.15378 11.3142 5.15378C11.4233 5.15378 11.5313 5.13229 11.6321 5.09054C11.7329 5.04878 11.8245 4.98758 11.9017 4.91043C11.9788 4.83328 12.04 4.74169 12.0818 4.64089C12.1235 4.54008 12.145 4.43204 12.145 4.32293C12.145 4.21382 12.1235 4.10578 12.0818 4.00498C12.04 3.90418 11.9788 3.81258 11.9017 3.73543L8.91002 0.743767C8.83292 0.666514 8.74135 0.605223 8.64054 0.563405C8.53973 0.521587 8.43166 0.500064 8.32252 0.500064C8.21338 0.500064 8.10531 0.521587 8.0045 0.563405C7.90369 0.605223 7.81211 0.666514 7.73502 0.743767L4.74335 3.73543C4.58754 3.89125 4.5 4.10258 4.5 4.32293C4.5 4.54329 4.58754 4.75462 4.74335 4.91043C4.89916 5.06625 5.11049 5.15378 5.33085 5.15378C5.55121 5.15378 5.76254 5.06625 5.91835 4.91043L7.49335 3.34377V10.5688C7.49335 11.0271 7.86835 11.4021 8.32668 11.4021C8.78502 11.4021 9.16002 11.0271 9.16002 10.5688V3.34377Z" fill="#3D3D3D"/>
</svg>
