<svg width="114" height="32" viewBox="0 0 114 32" fill="none" xmlns="http://www.w3.org/2000/svg">
<rect width="113.742" height="31.6831" rx="6.68311" fill="#FF9D02"/>
<path d="M17.1552 6.7667H20.2702V14.5541H24.9426V6.7667L28.0576 6.7667V22.3416H26.5001V23.899H18.7127V22.3416H17.1552V6.7667ZM20.2702 16.1116V22.3416H24.9426V16.1116H20.2702ZM34.2875 5.20921L37.4025 5.20921V25.4565H34.2875V5.20921ZM40.5175 22.3416H42.075V20.7841H43.6325V6.7667H46.7474V19.2266H48.3049V6.7667H51.4199V20.7841H52.9774V22.3416H54.5349V23.899H51.4199V22.3416H48.3049V23.899L45.1899 23.899V22.3416H43.6325V23.899H40.5175V22.3416ZM45.1899 20.7841V22.3416H46.7474V20.7841H45.1899ZM57.6498 5.20921H60.7648V14.5541L65.4373 14.5541V16.1116L60.7648 16.1116V25.4565H57.6498V5.20921ZM66.9947 6.7667L77.8971 6.7667V8.32418H70.1097V22.3416H74.7822V20.7841H77.8971V22.3416H76.3397V23.899H68.5522V22.3416H66.9947V6.7667ZM82.5696 5.20921H85.6846V14.5541H90.357V16.1116H85.6846V25.4565H82.5696V5.20921ZM91.9145 6.7667H95.0295V17.6691H91.9145V6.7667ZM91.9145 19.2266H95.0295V22.3416H91.9145V19.2266Z" fill="#F1F1F1"/>
</svg>
