<svg width="72" height="24" viewBox="0 0 72 24" fill="none" xmlns="http://www.w3.org/2000/svg">
<ellipse cx="35.96" cy="12.2551" rx="35.5" ry="11.4441" fill="#FF9D02"/>
<path d="M13.8983 14.5121V14.1289C13.8983 13.6259 14.1977 13.2906 14.6528 13.2906H16.4133C16.7846 13.2906 17.0121 13.5301 17.2037 14.1289C17.2636 14.3085 17.3834 14.3924 17.563 14.4043H18.054C18.3534 14.4043 18.4612 14.2007 18.4612 13.8295V13.8175C18.4612 13.566 18.3295 13.3145 18.078 13.2187L15.2397 12.0331C14.4253 11.7097 13.8983 11.0151 13.8983 9.91334V8.8834C13.8983 7.20676 14.8085 6.32054 16.2816 6.32054H19.3354C20.8205 6.32054 21.7187 7.20676 21.7187 8.8834V9.38639C21.7187 9.88938 21.4193 10.2247 20.9642 10.2247H19.2157C18.7965 10.2247 18.5211 9.92531 18.4492 9.38639C18.4133 9.1349 18.2935 8.99118 18.054 8.99118H17.563C17.2756 8.99118 17.1678 9.19478 17.1678 9.56603V9.57801C17.1678 9.96124 17.3115 10.2127 17.6109 10.3205L20.3774 11.3624C21.2396 11.6858 21.7067 12.5241 21.7067 13.3385L21.7187 14.5121C21.7187 16.1888 20.8205 17.075 19.3354 17.075H16.2816C14.8085 17.075 13.8983 16.1888 13.8983 14.5121ZM29.7054 11.602V14.6319C29.7054 16.3085 28.903 17.075 27.4299 17.075H24.6874C23.2144 17.075 22.412 16.3085 22.412 14.6319V11.602C22.412 9.92531 23.2144 9.15885 24.6874 9.15885H27.4299C28.903 9.15885 29.7054 9.92531 29.7054 11.602ZM25.4898 14.4283H26.4958C26.6754 13.6259 26.6754 12.6199 26.4958 11.8175H25.4898C25.6215 12.6199 25.6335 13.6259 25.4898 14.4283ZM34.0651 16.9433C33.622 16.7995 33.0112 17.0151 32.5561 17.0151H31.1789C30.7238 17.0151 30.4244 16.6798 30.4244 16.1768V7.21874C30.4244 6.71574 30.7238 6.38042 31.1789 6.38042H32.7118C33.1549 6.38042 33.4663 6.71574 33.4663 7.21874V9.61394C33.7537 9.33849 34.3765 9.15885 35.0232 9.15885H35.4304C36.9154 9.15885 37.7058 9.92531 37.7058 11.602V14.6319C37.7058 16.3085 36.9154 17.075 35.4304 17.075H34.8914C34.592 17.075 34.3166 17.0271 34.0651 16.9433ZM33.5501 14.4283H34.5561C34.7118 13.6259 34.7118 12.596 34.5561 11.7936H33.5501C33.6819 12.596 33.6938 13.6259 33.5501 14.4283ZM41.7892 7.21874V7.81754C41.7892 8.32053 41.4779 8.65586 41.0347 8.65586H39.1785C38.7234 8.65586 38.424 8.32053 38.424 7.81754V7.21874C38.424 6.71574 38.7234 6.38042 39.1785 6.38042H41.0347C41.4779 6.38042 41.7892 6.71574 41.7892 7.21874ZM41.7892 10.0331V16.1768C41.7892 16.6798 41.4779 17.0151 41.0347 17.0151H39.1785C38.7234 17.0151 38.424 16.6798 38.424 16.1768V10.0331C38.424 9.5301 38.7234 9.19478 39.1785 9.19478H41.0347C41.4779 9.19478 41.7892 9.5301 41.7892 10.0331ZM42.5045 15.1948V15.1229C42.5045 14.6199 42.8039 14.2846 43.259 14.2846H45.0434C45.3548 14.2846 45.5345 14.7397 45.8458 14.7636H46.2171C46.4446 14.7636 46.5165 14.6439 46.5165 14.5001C46.5165 14.2726 46.4087 14.2726 46.2291 14.1888L43.4866 13.3145C42.9117 13.075 42.5045 12.572 42.5045 11.7576V11.0391C42.5045 9.80555 43.1752 9.15885 44.253 9.15885H47.8099C48.8877 9.15885 49.5584 9.80555 49.5584 11.0391V11.1948C49.5584 11.6978 49.259 12.0331 48.8039 12.0331H47.1033C46.744 12.0331 46.5644 11.4822 46.2051 11.4822H45.8458C45.6303 11.4822 45.5584 11.6139 45.5584 11.7696C45.5584 11.9972 45.6901 12.0211 45.8937 12.1049L48.5644 12.8714C49.2111 13.1109 49.5464 13.7097 49.5464 14.3205L49.5584 15.1948C49.5584 16.4283 48.8877 17.075 47.8099 17.075H44.253C43.1752 17.075 42.5045 16.4283 42.5045 15.1948ZM57.5168 10.0331V16.1768C57.5168 16.6798 57.2054 17.0151 56.7623 17.0151H55.3731C54.93 17.0151 54.3072 16.7995 53.8761 16.9433C53.6246 17.0271 53.3372 17.075 53.0378 17.075H52.4989C51.0258 17.075 50.2234 16.3085 50.2234 14.6319V11.602C50.2234 9.92531 51.0258 9.15885 52.4989 9.15885H52.9061C53.3611 9.15885 53.7923 9.25466 54.1037 9.38639C54.4749 9.54208 54.9899 9.19478 55.3731 9.19478H56.7623C57.2054 9.19478 57.5168 9.5301 57.5168 10.0331ZM53.2534 14.4283H54.2593C54.439 13.6259 54.439 12.6199 54.2593 11.8175L53.2534 11.8175C53.3851 12.6199 53.3971 13.6259 53.2534 14.4283Z" fill="#F7F7F7"/>
</svg>
