<svg width="current" height="current" viewBox="0 0 current current" fill="none" xmlns="http://www.w3.org/2000/svg">
<path d="M70.5 11.4441C70.5 12.798 69.6486 14.1737 67.9072 15.501C66.1733 16.8224 63.6329 18.034 60.4489 19.0604C54.0865 21.1114 45.2656 22.3882 35.5 22.3882C25.7344 22.3882 16.9135 21.1114 10.5511 19.0604C7.36711 18.034 4.82669 16.8224 3.09285 15.501C1.35137 14.1737 0.5 12.798 0.5 11.4441C0.5 10.0902 1.35137 8.71449 3.09285 7.38719C4.82669 6.06573 7.36711 4.8542 10.5511 3.82778C16.9135 1.77674 25.7344 0.5 35.5 0.5C45.2656 0.5 54.0865 1.77674 60.4489 3.82778C63.6329 4.8542 66.1733 6.06573 67.9072 7.38719C69.6486 8.71449 70.5 10.0902 70.5 11.4441Z" stroke="#FF9D02"/>
<path d="M14.5629 13.0359L15.3081 13.7027H15.3081L14.5629 13.0359ZM17.3293 13L16.5998 13.6839L16.6108 13.6957L16.6222 13.7071L17.3293 13ZM17.6647 13.6467L16.7111 13.9478L16.7135 13.9554L16.716 13.9629L17.6647 13.6467ZM18.0239 13.9222L17.9373 14.9184L17.9805 14.9222H18.0239V13.9222ZM18.8263 13.7784L17.9747 13.2544L17.9685 13.2644L17.9626 13.2746L18.8263 13.7784ZM18.8263 12.9761L19.6946 12.4799L19.6946 12.4799L18.8263 12.9761ZM18.5389 12.7365L18.1535 13.6593L18.1705 13.6664L18.1878 13.6729L18.5389 12.7365ZM15.7006 11.5509L16.086 10.6282L16.0759 10.6239L16.0657 10.6199L15.7006 11.5509ZM14.7186 10.7844L13.8923 11.3478L13.8967 11.3541L13.9011 11.3604L14.7186 10.7844ZM21.5449 6.48506L20.8245 7.17874L20.8312 7.18553L21.5449 6.48506ZM21.976 9.51499L21.2308 8.84819L21.2308 8.8482L21.976 9.51499ZM18.9102 8.90421L19.902 8.77669L19.9006 8.76553L19.8989 8.75441L18.9102 8.90421ZM17.7126 8.66469L16.8609 8.1406L16.8547 8.15064L16.8488 8.16082L17.7126 8.66469ZM18.0718 9.83834L18.4243 8.90251L18.4139 8.89858L18.4033 8.89488L18.0718 9.83834ZM20.8383 10.8803L20.4858 11.8161L20.491 11.818L20.8383 10.8803ZM21.4012 11.2156L20.7322 11.9589L20.7516 11.9764L20.772 11.9928L21.4012 11.2156ZM21.8203 11.6826L20.9767 12.2195L20.9852 12.2329L20.9941 12.246L21.8203 11.6826ZM22.0838 12.2575L21.1181 12.5175L21.1208 12.5271L22.0838 12.2575ZM22.1676 12.8563H21.1676L21.1677 12.8665L22.1676 12.8563ZM22.1796 14.0299H23.1797L23.1796 14.0197L22.1796 14.0299ZM21.5449 15.9461L20.8312 15.2456L20.8246 15.2525L21.5449 15.9461ZM14.994 15.9461L14.2803 16.6466H14.2803L14.994 15.9461ZM15.3593 13.6467C15.3593 13.6066 15.3647 13.6012 15.3589 13.6186C15.3559 13.6276 15.3505 13.6409 15.3414 13.6566C15.3323 13.6725 15.3211 13.6882 15.3081 13.7027L13.8176 12.3691C13.4791 12.7475 13.3593 13.2103 13.3593 13.6467H15.3593ZM15.3081 13.7027C15.2783 13.7361 15.2348 13.7686 15.1842 13.7895C15.1366 13.8092 15.1076 13.8084 15.1138 13.8084V11.8084C14.6411 11.8084 14.1702 11.9751 13.8176 12.3691L15.3081 13.7027ZM15.1138 13.8084H16.8742V11.8084H15.1138V13.8084ZM16.8742 13.8084C16.8482 13.8084 16.7981 13.8034 16.7377 13.7779C16.6762 13.752 16.6296 13.7157 16.5998 13.6839L18.0589 12.3161C17.7399 11.9759 17.3191 11.8084 16.8742 11.8084V13.8084ZM16.6222 13.7071C16.5935 13.6784 16.5974 13.6719 16.6212 13.7178C16.644 13.7617 16.6755 13.8352 16.7111 13.9478L18.6182 13.3456C18.5057 12.9892 18.334 12.5905 18.0364 12.2929L16.6222 13.7071ZM16.716 13.9629C16.796 14.2031 16.9438 14.4478 17.188 14.6349C17.4294 14.82 17.698 14.8976 17.9373 14.9184L18.1106 12.9259C18.1662 12.9308 18.2832 12.9545 18.4048 13.0477C18.5292 13.1431 18.5892 13.258 18.6133 13.3305L16.716 13.9629ZM18.0239 14.9222H18.515V12.9222H18.0239V14.9222ZM18.515 14.9222C18.8751 14.9222 19.3915 14.7942 19.6901 14.2823L17.9626 13.2746C18.0412 13.1397 18.1593 13.0374 18.2875 12.9783C18.4025 12.9252 18.4912 12.9222 18.515 12.9222V14.9222ZM19.678 14.3025C19.8761 13.9805 19.9221 13.6288 19.9221 13.3473H17.9221C17.9221 13.3833 17.9188 13.3902 17.922 13.3759C17.9253 13.361 17.9376 13.3146 17.9747 13.2544L19.678 14.3025ZM19.9221 13.3473V13.3353H17.9221V13.3473H19.9221ZM19.9221 13.3353C19.9221 13.0321 19.8441 12.7416 19.6946 12.4799L17.9581 13.4722C17.9489 13.4561 17.9391 13.4341 17.932 13.4074C17.9248 13.3806 17.9221 13.3558 17.9221 13.3353H19.9221ZM19.6946 12.4799C19.5077 12.1529 19.2221 11.9247 18.89 11.8002L18.1878 13.6729C18.1564 13.6611 18.1124 13.6389 18.0664 13.6006C18.0197 13.5617 17.9834 13.5165 17.9581 13.4722L19.6946 12.4799ZM18.9243 11.8138L16.086 10.6282L15.3151 12.4736L18.1535 13.6593L18.9243 11.8138ZM16.0657 10.6199C15.8374 10.5304 15.6686 10.3967 15.536 10.2085L13.9011 11.3604C14.2635 11.8748 14.7495 12.2521 15.3355 12.4819L16.0657 10.6199ZM15.5448 10.2211C15.4477 10.0787 15.3593 9.84004 15.3593 9.43116H13.3593C13.3593 10.1241 13.5104 10.7876 13.8923 11.3478L15.5448 10.2211ZM15.3593 9.43116V8.40122H13.3593V9.43116H15.3593ZM15.3593 8.40122C15.3593 7.71063 15.531 7.36553 15.7077 7.18553L14.2803 5.78459C13.6107 6.46687 13.3593 7.39921 13.3593 8.40122H15.3593ZM15.7077 7.18553C15.9014 6.98818 16.2029 6.83836 16.7425 6.83836V4.83836C15.7971 4.83836 14.9329 5.11967 14.2803 5.78459L15.7077 7.18553ZM16.7425 6.83836H19.7964V4.83836H16.7425V6.83836ZM19.7964 6.83836C20.3484 6.83836 20.6433 6.99045 20.8246 7.1787L22.2652 5.79142C21.6161 5.1174 20.7454 4.83836 19.7964 4.83836V6.83836ZM20.8312 7.18553C21.0079 7.36553 21.1796 7.71063 21.1796 8.40122H23.1796C23.1796 7.39921 22.9282 6.46687 22.2586 5.78459L20.8312 7.18553ZM21.1796 8.40122V8.90421H23.1796V8.40122H21.1796ZM21.1796 8.90421C21.1796 8.94437 21.1742 8.94976 21.18 8.9323C21.183 8.92335 21.1884 8.91007 21.1974 8.8943C21.2066 8.87841 21.2178 8.86268 21.2308 8.84819L22.7213 10.1818C23.0598 9.80339 23.1796 9.34061 23.1796 8.90421H21.1796ZM21.2308 8.8482C21.2606 8.81482 21.3041 8.7823 21.3547 8.76139C21.4023 8.74174 21.4313 8.74253 21.4251 8.74253V10.7425C21.8978 10.7425 22.3687 10.5758 22.7213 10.1818L21.2308 8.8482ZM21.4251 8.74253H19.6766V10.7425H21.4251V8.74253ZM19.6766 8.74253C19.673 8.74253 19.7045 8.7421 19.7549 8.7624C19.8088 8.78405 19.8577 8.81876 19.8937 8.85819C19.927 8.89457 19.9344 8.91847 19.93 8.90725C19.9251 8.89469 19.912 8.85486 19.902 8.77669L17.9183 9.03174C17.9684 9.42102 18.0982 9.85839 18.4176 10.2077C18.7657 10.5884 19.2255 10.7425 19.6766 10.7425V8.74253ZM19.8989 8.75441C19.8602 8.49936 19.7579 8.17007 19.4885 7.9007C19.1985 7.61065 18.8352 7.50901 18.515 7.50901V9.50901C18.4183 9.50901 18.2326 9.47323 18.0743 9.31491C18.0057 9.2463 17.9666 9.1777 17.9458 9.1297C17.9257 9.08355 17.9215 9.05442 17.9214 9.05402L19.8989 8.75441ZM18.515 7.50901H18.0239V9.50901H18.515V7.50901ZM18.0239 7.50901C17.606 7.50901 17.142 7.6838 16.8609 8.1406L18.5642 9.18879C18.5036 9.28727 18.4089 9.38068 18.2855 9.44236C18.1694 9.50042 18.0711 9.50901 18.0239 9.50901V7.50901ZM16.8488 8.16082C16.6631 8.47922 16.6287 8.82649 16.6287 9.08385H18.6287C18.6287 9.0401 18.6323 9.02737 18.6303 9.03746C18.6284 9.04666 18.6173 9.09828 18.5763 9.16856L16.8488 8.16082ZM16.6287 9.08385V9.09583H18.6287V9.08385H16.6287ZM16.6287 9.09583C16.6287 9.40975 16.6871 9.7628 16.8808 10.0873C17.0852 10.4299 17.3924 10.6595 17.7404 10.7818L18.4033 8.89488C18.4231 8.90182 18.4587 8.91784 18.4992 8.94994C18.5406 8.98276 18.5743 9.02233 18.5982 9.06241C18.6442 9.13944 18.6287 9.17313 18.6287 9.09583H16.6287ZM17.7194 10.7742L20.4858 11.8161L21.1908 9.94443L18.4243 8.90251L17.7194 10.7742ZM20.491 11.818C20.5964 11.857 20.6729 11.9055 20.7322 11.9589L22.0701 10.4723C21.8101 10.2382 21.5113 10.0631 21.1856 9.94251L20.491 11.818ZM20.772 11.9928C20.8587 12.063 20.925 12.1383 20.9767 12.2195L22.664 11.1458C22.4921 10.8757 22.279 10.6396 22.0304 10.4383L20.772 11.9928ZM20.9941 12.246C21.05 12.328 21.0911 12.4169 21.1182 12.5175L23.0494 11.9975C22.9647 11.683 22.8302 11.3886 22.6466 11.1193L20.9941 12.246ZM21.1208 12.5271C21.1531 12.6423 21.1676 12.7513 21.1676 12.8563H23.1676C23.1676 12.5621 23.1263 12.2718 23.0468 11.9879L21.1208 12.5271ZM21.1677 12.8665L21.1797 14.0401L23.1796 14.0197L23.1676 12.8461L21.1677 12.8665ZM21.1796 14.0299C21.1796 14.7205 21.0079 15.0656 20.8312 15.2456L22.2586 16.6466C22.9282 15.9643 23.1796 15.032 23.1796 14.0299H21.1796ZM20.8246 15.2525C20.6433 15.4407 20.3484 15.5928 19.7964 15.5928V17.5928C20.7454 17.5928 21.6161 17.3138 22.2652 16.6397L20.8246 15.2525ZM19.7964 15.5928H16.7425V17.5928H19.7964V15.5928ZM16.7425 15.5928C16.2029 15.5928 15.9014 15.443 15.7077 15.2456L14.2803 16.6466C14.9329 17.3115 15.7971 17.5928 16.7425 17.5928V15.5928ZM15.7077 15.2456C15.531 15.0656 15.3593 14.7205 15.3593 14.0299H13.3593C13.3593 15.032 13.6107 15.9643 14.2803 16.6466L15.7077 15.2456ZM15.3593 14.0299V13.6467H13.3593V14.0299H15.3593ZM29.5795 16.006L28.8723 15.2988L28.8651 15.3062L29.5795 16.006ZM23.4478 16.006L22.7334 16.7058L22.7407 16.7131L23.4478 16.006ZM23.4478 9.26349L22.7406 8.55635L22.7334 8.56371L23.4478 9.26349ZM29.5795 9.26349L28.8651 9.96331L28.8724 9.9706L29.5795 9.26349ZM26.9567 13.9461V14.9461H27.764L27.9342 14.1569L26.9567 13.9461ZM26.9567 11.3353L27.9342 11.1245L27.764 10.3353H26.9567V11.3353ZM25.9507 11.3353V10.3353H24.7817L24.9628 11.4903L25.9507 11.3353ZM26.0465 12.6407H25.0465V12.6493L25.0467 12.658L26.0465 12.6407ZM25.9507 13.9461L24.966 13.7723L24.7588 14.9461H25.9507V13.9461ZM29.1663 14.1497C29.1663 14.8685 28.9971 15.1742 28.8724 15.2989L30.2866 16.7131C30.9443 16.0554 31.1663 15.1235 31.1663 14.1497L29.1663 14.1497ZM28.8651 15.3062C28.7293 15.4449 28.4631 15.5928 27.8909 15.5928V17.5928C28.8036 17.5928 29.6632 17.3495 30.2938 16.7058L28.8651 15.3062ZM27.8909 15.5928H25.1483V17.5928H27.8909V15.5928ZM25.1483 15.5928C24.5775 15.5928 24.3014 15.4454 24.1549 15.2989L22.7407 16.7131C23.3765 17.349 24.2341 17.5928 25.1483 17.5928V15.5928ZM24.1621 15.3062C24.0404 15.1819 23.8729 14.8732 23.8729 14.1497H21.8729C21.8729 15.1188 22.0887 16.0476 22.7334 16.7058L24.1621 15.3062ZM23.8729 14.1497V11.1198H21.8729V14.1497H23.8729ZM23.8729 11.1198C23.8729 10.3962 24.0404 10.0875 24.1621 9.96327L22.7334 8.56371C22.0887 9.22189 21.8729 10.1507 21.8729 11.1198H23.8729ZM24.1549 9.9706C24.3014 9.82405 24.5775 9.67667 25.1483 9.67667V7.67667C24.2341 7.67667 23.3765 7.92051 22.7407 8.55639L24.1549 9.9706ZM25.1483 9.67667H27.8909V7.67667L25.1483 7.67667V9.67667ZM27.8909 9.67667C28.4631 9.67667 28.7293 9.82458 28.8651 9.96327L30.2938 8.56371C29.6632 7.91997 28.8036 7.67667 27.8909 7.67667V9.67667ZM28.8724 9.9706C28.9971 10.0953 29.1663 10.401 29.1663 11.1198H31.1663C31.1663 10.146 30.9443 9.2141 30.2866 8.55639L28.8724 9.9706ZM29.1663 11.1198V14.1497L31.1663 14.1497V11.1198H29.1663ZM27.9342 14.1569C28.0386 13.6733 28.0885 13.1669 28.0885 12.6407H26.0885C26.0885 13.0407 26.0505 13.4046 25.9792 13.7353L27.9342 14.1569ZM28.0885 12.6407C28.0885 12.1145 28.0386 11.6082 27.9342 11.1245L25.9792 11.5462C26.0505 11.8769 26.0885 12.2408 26.0885 12.6407H28.0885ZM26.9567 10.3353H25.9507V12.3353H26.9567V10.3353ZM24.9628 11.4903C25.0177 11.8404 25.0465 12.2233 25.0465 12.6407H27.0465C27.0465 12.132 27.0115 11.6446 26.9387 11.1804L24.9628 11.4903ZM25.0467 12.658C25.0537 13.0645 25.0255 13.4352 24.966 13.7723L26.9355 14.1199C27.0197 13.6427 27.0554 13.1431 27.0464 12.6235L25.0467 12.658ZM25.9507 14.9461H26.9567V12.9461H25.9507V14.9461ZM34.526 16.4611L34.8423 15.5124L34.8216 15.5055L34.8007 15.4995L34.526 16.4611ZM33.7715 16.4371L33.6547 15.444L33.6208 15.448L33.5873 15.4542L33.7715 16.4371ZM33.3763 16.497L33.2595 15.5038L33.2256 15.5078L33.192 15.5141L33.3763 16.497ZM31.0889 16.3054L31.8342 15.6386L31.0889 16.3054ZM31.0889 6.12578L31.8342 6.79258V6.79258L31.0889 6.12578ZM33.7117 6.12578L32.9664 6.79258L32.9759 6.80319L32.9857 6.81353L33.7117 6.12578ZM33.9272 9.13176H32.9272V11.4517L34.6139 9.85877L33.9272 9.13176ZM34.562 8.80841L34.8367 9.76993L34.8454 9.76742L34.8542 9.76476L34.562 8.80841ZM37.5919 9.26349L36.8775 9.96327L37.5919 9.26349ZM37.5919 16.006L36.8775 15.3062V15.3062L37.5919 16.006ZM35.017 13.9461V14.9461H35.84L35.9984 14.1385L35.017 13.9461ZM35.017 11.3114L35.9984 11.119L35.84 10.3114H35.017V11.3114ZM34.0111 11.3114V10.3114H32.842L33.0231 11.4664L34.0111 11.3114ZM34.1069 12.6288H33.1069V12.6372L33.107 12.6457L34.1069 12.6288ZM34.0111 13.9461L33.0263 13.7723L32.8191 14.9461H34.0111V13.9461ZM34.8007 15.4995C34.5913 15.4397 34.3783 15.4132 34.1667 15.4132V17.4132C34.2107 17.4132 34.2372 17.4186 34.2513 17.4226L34.8007 15.4995ZM34.1667 15.4132C33.9974 15.4132 33.8265 15.4238 33.6547 15.444L33.8884 17.4303C33.988 17.4186 34.0806 17.4132 34.1667 17.4132V15.4132ZM33.5873 15.4542C33.483 15.4738 33.3738 15.4904 33.2595 15.5038L33.4932 17.4902C33.6503 17.4717 33.8046 17.4483 33.9558 17.42L33.5873 15.4542ZM33.192 15.5141C33.1155 15.5285 33.058 15.5329 33.0171 15.5329V17.5329C33.1997 17.5329 33.3817 17.5134 33.5606 17.4799L33.192 15.5141ZM33.0171 15.5329H31.6398V17.5329H33.0171V15.5329ZM31.6398 15.5329C31.6336 15.5329 31.6626 15.5321 31.7102 15.5518C31.7608 15.5727 31.8043 15.6052 31.8342 15.6386L30.3437 16.9722C30.6962 17.3662 31.1671 17.5329 31.6398 17.5329V15.5329ZM31.8342 15.6386C31.8471 15.6531 31.8584 15.6688 31.8675 15.6847C31.8765 15.7005 31.8819 15.7137 31.8849 15.7227C31.8907 15.7402 31.8853 15.7348 31.8853 15.6946L29.8853 15.6946C29.8853 16.131 30.0051 16.5938 30.3437 16.9722L31.8342 15.6386ZM31.8853 15.6946V6.73656H29.8853V15.6946L31.8853 15.6946ZM31.8853 6.73656C31.8853 6.69641 31.8907 6.69101 31.8849 6.70848C31.8819 6.71742 31.8765 6.7307 31.8675 6.74647C31.8584 6.76236 31.8471 6.77809 31.8342 6.79258L30.3437 5.45899C30.0051 5.83738 29.8853 6.30016 29.8853 6.73656H31.8853ZM31.8342 6.79258C31.8043 6.82595 31.7608 6.85847 31.7102 6.87938C31.6626 6.89903 31.6336 6.89824 31.6398 6.89824V4.89824C31.1671 4.89824 30.6962 5.06499 30.3437 5.45899L31.8342 6.79258ZM31.6398 6.89824H33.1727V4.89824H31.6398V6.89824ZM33.1727 6.89824C33.1703 6.89824 33.1362 6.89748 33.0862 6.87637C33.0339 6.8543 32.9926 6.82186 32.9664 6.79258L34.4569 5.45899C34.1116 5.07302 33.6495 4.89824 33.1727 4.89824V6.89824ZM32.9857 6.81353C32.973 6.80015 32.9612 6.78471 32.951 6.76801C32.941 6.7514 32.9344 6.73647 32.9303 6.72507C32.9223 6.70238 32.9272 6.70191 32.9272 6.73656H34.9272C34.9272 6.28532 34.7947 5.81496 34.4376 5.43804L32.9857 6.81353ZM32.9272 6.73656V9.13176H34.9272V6.73656H32.9272ZM34.6139 9.85877C34.6041 9.868 34.6103 9.85916 34.6476 9.84016C34.685 9.8211 34.7456 9.79594 34.8367 9.76993L34.2872 7.84688C33.9207 7.9516 33.5427 8.11942 33.2406 8.40475L34.6139 9.85877ZM34.8542 9.76476C35.0388 9.70833 35.247 9.67667 35.4841 9.67667V7.67667C35.0665 7.67667 34.6599 7.73283 34.2697 7.85205L34.8542 9.76476ZM35.4841 9.67667H35.8913V7.67667H35.4841V9.67667ZM35.8913 9.67667C36.4752 9.67667 36.7435 9.82649 36.8775 9.96327L38.3062 8.56371C37.6738 7.91807 36.8084 7.67667 35.8913 7.67667V9.67667ZM36.8775 9.96327C36.9993 10.0875 37.1667 10.3962 37.1667 11.1198L39.1667 11.1198C39.1667 10.1507 38.951 9.22189 38.3062 8.56371L36.8775 9.96327ZM37.1667 11.1198V14.1497H39.1667V11.1198L37.1667 11.1198ZM37.1667 14.1497C37.1667 14.8732 36.9993 15.1819 36.8775 15.3062L38.3062 16.7058C38.951 16.0476 39.1667 15.1188 39.1667 14.1497H37.1667ZM36.8775 15.3062C36.7435 15.443 36.4752 15.5928 35.8913 15.5928V17.5928C36.8084 17.5928 37.6738 17.3514 38.3062 16.7058L36.8775 15.3062ZM35.8913 15.5928H35.3524V17.5928H35.8913V15.5928ZM35.3524 15.5928C35.1686 15.5928 35.0002 15.565 34.8423 15.5124L34.2098 17.4098C34.5788 17.5327 34.9613 17.5928 35.3524 17.5928V15.5928ZM35.9984 14.1385C36.0922 13.6601 36.1368 13.1559 36.1368 12.6288H34.1368C34.1368 13.0437 34.1016 13.4177 34.0357 13.7537L35.9984 14.1385ZM36.1368 12.6288C36.1368 12.1016 36.0922 11.5974 35.9984 11.119L34.0357 11.5038C34.1016 11.8398 34.1368 12.2138 34.1368 12.6288H36.1368ZM35.017 10.3114H34.0111V12.3114H35.017V10.3114ZM33.0231 11.4664C33.0779 11.8156 33.1069 12.2024 33.1069 12.6288H35.1069C35.1069 12.113 35.0719 11.6215 34.999 11.1564L33.0231 11.4664ZM33.107 12.6457C33.1141 13.0615 33.0856 13.4361 33.0263 13.7723L34.9958 14.1199C35.0802 13.6418 35.1156 13.1381 35.1067 12.6118L33.107 12.6457ZM34.0111 14.9461H35.017V12.9461H34.0111V14.9461ZM42.0346 7.94613L41.3087 7.25839L41.2989 7.26873L41.2894 7.27934L42.0346 7.94613ZM39.0885 7.94613L39.8338 7.27934L39.0885 7.94613ZM39.0885 6.12578L39.8338 6.79258V6.79258L39.0885 6.12578ZM42.0346 6.12578L41.2894 6.79258L41.2989 6.80319L41.3087 6.81353L42.0346 6.12578ZM42.0346 16.3054L41.3087 15.6176L41.2989 15.628L41.2894 15.6386L42.0346 16.3054ZM39.0885 16.3054L39.8338 15.6386L39.0885 16.3054ZM39.0885 8.94014L38.3433 8.27335V8.27335L39.0885 8.94014ZM42.0346 8.94014L41.2894 9.60694L41.2989 9.61755L41.3087 9.62789L42.0346 8.94014ZM41.2502 7.33536C41.2502 7.37001 41.2453 7.36954 41.2533 7.34685C41.2573 7.33544 41.2639 7.32052 41.274 7.3039C41.2841 7.28721 41.296 7.27177 41.3087 7.25839L42.7606 8.63388C43.1176 8.25696 43.2502 7.7866 43.2502 7.33536H41.2502ZM41.2894 7.27934C41.3156 7.25005 41.3568 7.21761 41.4091 7.19554C41.4591 7.17443 41.4933 7.17368 41.4957 7.17368V9.17368C41.9725 9.17368 42.4345 8.9989 42.7798 8.61293L41.2894 7.27934ZM41.4957 7.17368H39.6394V9.17368H41.4957V7.17368ZM39.6394 7.17368C39.6332 7.17368 39.6622 7.17289 39.7098 7.19253C39.7604 7.21345 39.8039 7.24597 39.8338 7.27934L38.3433 8.61293C38.6958 9.00693 39.1667 9.17368 39.6394 9.17368V7.17368ZM39.8338 7.27934C39.8467 7.29382 39.858 7.30955 39.8671 7.32544C39.8761 7.34121 39.8815 7.3545 39.8845 7.36344C39.8903 7.38091 39.8849 7.37551 39.8849 7.33536H37.8849C37.8849 7.77176 38.0047 8.23454 38.3433 8.61293L39.8338 7.27934ZM39.8849 7.33536V6.73656H37.8849V7.33536H39.8849ZM39.8849 6.73656C39.8849 6.69641 39.8903 6.69101 39.8845 6.70848C39.8815 6.71742 39.8761 6.7307 39.8671 6.74647C39.858 6.76236 39.8467 6.77809 39.8338 6.79258L38.3433 5.45899C38.0047 5.83738 37.8849 6.30016 37.8849 6.73656H39.8849ZM39.8338 6.79258C39.8039 6.82595 39.7604 6.85847 39.7098 6.87938C39.6622 6.89903 39.6332 6.89824 39.6394 6.89824V4.89824C39.1667 4.89824 38.6958 5.06499 38.3433 5.45899L39.8338 6.79258ZM39.6394 6.89824H41.4957V4.89824H39.6394V6.89824ZM41.4957 6.89824C41.4933 6.89824 41.4591 6.89748 41.4091 6.87637C41.3568 6.8543 41.3156 6.82186 41.2894 6.79258L42.7798 5.45899C42.4345 5.07302 41.9725 4.89824 41.4957 4.89824V6.89824ZM41.3087 6.81353C41.296 6.80015 41.2841 6.78471 41.274 6.76801C41.2639 6.7514 41.2573 6.73647 41.2533 6.72507C41.2453 6.70238 41.2502 6.70191 41.2502 6.73656H43.2502C43.2502 6.28532 43.1176 5.81496 42.7606 5.43804L41.3087 6.81353ZM41.2502 6.73656V7.33536H43.2502V6.73656H41.2502ZM41.2502 15.6946C41.2502 15.7293 41.2453 15.7288 41.2533 15.7061C41.2573 15.6947 41.2639 15.6798 41.274 15.6632C41.2841 15.6465 41.296 15.631 41.3087 15.6176L42.7606 16.9931C43.1176 16.6162 43.2502 16.1458 43.2502 15.6946H41.2502ZM41.2894 15.6386C41.3156 15.6093 41.3568 15.5769 41.4091 15.5548C41.4591 15.5337 41.4933 15.5329 41.4957 15.5329V17.5329C41.9725 17.5329 42.4345 17.3581 42.7798 16.9722L41.2894 15.6386ZM41.4957 15.5329H39.6394V17.5329H41.4957V15.5329ZM39.6394 15.5329C39.6332 15.5329 39.6622 15.5321 39.7098 15.5518C39.7604 15.5727 39.8039 15.6052 39.8338 15.6386L38.3433 16.9722C38.6958 17.3662 39.1667 17.5329 39.6394 17.5329V15.5329ZM39.8338 15.6386C39.8467 15.6531 39.858 15.6688 39.8671 15.6847C39.8761 15.7005 39.8815 15.7137 39.8845 15.7227C39.8903 15.7402 39.8849 15.7348 39.8849 15.6946H37.8849C37.8849 16.131 38.0047 16.5938 38.3433 16.9722L39.8338 15.6386ZM39.8849 15.6946V9.55092L37.8849 9.55092V15.6946H39.8849ZM39.8849 9.55092C39.8849 9.51077 39.8903 9.50537 39.8845 9.52284C39.8815 9.53178 39.8761 9.54507 39.8671 9.56083C39.858 9.57672 39.8467 9.59245 39.8338 9.60694L38.3433 8.27335C38.0047 8.65174 37.8849 9.11452 37.8849 9.55092L39.8849 9.55092ZM39.8338 9.60694C39.8039 9.64031 39.7604 9.67283 39.7098 9.69375C39.6622 9.71339 39.6332 9.7126 39.6394 9.7126V7.7126C39.1667 7.7126 38.6958 7.87935 38.3433 8.27335L39.8338 9.60694ZM39.6394 9.7126H41.4957V7.7126H39.6394V9.7126ZM41.4957 9.7126C41.4933 9.7126 41.4591 9.71184 41.4091 9.69073C41.3568 9.66866 41.3156 9.63622 41.2894 9.60694L42.7798 8.27335C42.4345 7.88738 41.9725 7.7126 41.4957 7.7126V9.7126ZM41.3087 9.62789C41.296 9.61451 41.2841 9.59907 41.274 9.58237C41.2639 9.56576 41.2573 9.55083 41.2533 9.53943C41.2453 9.51674 41.2502 9.51627 41.2502 9.55092H43.2502C43.2502 9.09968 43.1176 8.62932 42.7606 8.2524L41.3087 9.62789ZM41.2502 9.55092V15.6946H43.2502V9.55092H41.2502ZM43.1691 14.0299L43.9143 14.6967L43.1691 14.0299ZM45.7199 13.8743L46.3199 13.0743V13.0743L45.7199 13.8743ZM45.8996 14.0419L45.147 14.7004L45.1909 14.7506L45.2411 14.7945L45.8996 14.0419ZM46.0912 14.1976L45.4912 14.9976L45.4912 14.9976L46.0912 14.1976ZM46.3068 14.2814L46.2073 15.2765L46.2569 15.2814H46.3068V14.2814ZM46.9056 14.2096L46.1462 13.5587L46.1373 13.5694L46.9056 14.2096ZM46.8936 13.8144L46.3389 14.6464L46.4153 14.6974L46.4997 14.7335L46.8936 13.8144ZM46.69 13.7066L47.1038 12.7962L47.05 12.7718L46.9937 12.7538L46.69 13.7066ZM43.9475 12.8323L43.5629 13.7554L43.6027 13.772L43.6438 13.7851L43.9475 12.8323ZM43.2409 12.2695L44.0529 11.6858L43.2409 12.2695ZM43.4325 9.15571L44.1397 9.86287L44.1485 9.85381L43.4325 9.15571ZM49.5523 9.15571L48.8362 9.85387L48.8452 9.86282L49.5523 9.15571ZM47.1092 11.2755L46.3617 11.9398L46.3813 11.9618L46.4021 11.9826L47.1092 11.2755ZM46.1032 11.515L45.5219 12.3287L45.5858 12.3743L45.656 12.4094L46.1032 11.515ZM46.3547 11.6228L45.9957 12.5561L46.0366 12.5719L46.0788 12.584L46.3547 11.6228ZM49.0253 12.3892L49.3689 11.4501L49.3354 11.4379L49.3012 11.428L49.0253 12.3892ZM49.7559 12.9761L48.8939 13.4831L48.8994 13.4924L48.9051 13.5015L49.7559 12.9761ZM50.0074 13.8383H49.0073L49.0074 13.852L50.0074 13.8383ZM50.0193 14.7126H51.0194L51.0192 14.6989L50.0193 14.7126ZM49.5523 16.1138L48.8451 15.4066L48.8363 15.4157L49.5523 16.1138ZM43.4325 16.1138L44.1486 15.4156L44.1396 15.4067L43.4325 16.1138ZM43.9655 14.6407C43.9655 14.6006 43.9709 14.5952 43.965 14.6126C43.9621 14.6216 43.9567 14.6349 43.9476 14.6506C43.9385 14.6665 43.9273 14.6823 43.9143 14.6967L42.4238 13.3631C42.0852 13.7415 41.9655 14.2043 41.9655 14.6407H43.9655ZM43.9143 14.6967C43.8844 14.7301 43.841 14.7626 43.7903 14.7835C43.7428 14.8032 43.7138 14.8024 43.7199 14.8024V12.8024C43.2472 12.8024 42.7763 12.9691 42.4238 13.3631L43.9143 14.6967ZM43.7199 14.8024H45.5044V12.8024H43.7199V14.8024ZM45.5044 14.8024C45.4427 14.8024 45.3734 14.7929 45.3019 14.769C45.2305 14.7452 45.1693 14.7113 45.1199 14.6743L46.3199 13.0743C46.083 12.8965 45.8006 12.8024 45.5044 12.8024V14.8024ZM45.1199 14.6743C45.1248 14.6779 45.1341 14.6856 45.147 14.7004L46.6522 13.3834C46.5533 13.2705 46.4428 13.1664 46.3199 13.0743L45.1199 14.6743ZM45.2411 14.7945C45.3227 14.8659 45.406 14.9337 45.4912 14.9976L46.6912 13.3976C46.6486 13.3657 46.6042 13.3297 46.5581 13.2893L45.2411 14.7945ZM45.4912 14.9976C45.7018 15.1555 45.9469 15.2504 46.2073 15.2765L46.4063 13.2864C46.507 13.2965 46.6084 13.3355 46.6912 13.3976L45.4912 14.9976ZM46.3068 15.2814H46.678V13.2814H46.3068V15.2814ZM46.678 15.2814C46.8652 15.2814 47.3372 15.2536 47.6738 14.8498L46.1373 13.5694C46.2695 13.4108 46.4229 13.3398 46.5176 13.3099C46.6077 13.2814 46.6697 13.2814 46.678 13.2814V15.2814ZM47.6648 14.8604C47.8639 14.6281 47.9774 14.3348 47.9774 14.018H45.9774C45.9774 13.9405 45.9908 13.8549 46.0231 13.7686C46.0553 13.6827 46.1002 13.6126 46.1463 13.5588L47.6648 14.8604ZM47.9774 14.018C47.9774 13.8561 47.9506 13.1794 47.2875 12.8952L46.4997 14.7335C46.2388 14.6217 46.0955 14.4187 46.0318 14.264C45.977 14.131 45.9774 14.0312 45.9774 14.018H47.9774ZM47.4483 12.9823C47.3358 12.9073 47.2126 12.8457 47.1038 12.7962L46.2762 14.617C46.3062 14.6306 46.3265 14.6407 46.3389 14.6473C46.3522 14.6543 46.3504 14.6541 46.3389 14.6464L47.4483 12.9823ZM46.9937 12.7538L44.2512 11.8796L43.6438 13.7851L46.3863 14.6594L46.9937 12.7538ZM44.3321 11.9093C44.2178 11.8616 44.1295 11.7924 44.0529 11.6858L42.4289 12.8531C42.7196 13.2575 43.1024 13.5635 43.5629 13.7554L44.3321 11.9093ZM44.0529 11.6858C44.0231 11.6443 43.9655 11.5347 43.9655 11.2755H41.9655C41.9655 11.8306 42.0915 12.3836 42.4289 12.8531L44.0529 11.6858ZM43.9655 11.2755V10.5569H41.9655V11.2755H43.9655ZM43.9655 10.5569C43.9655 10.0883 44.0819 9.92051 44.1396 9.86282L42.7254 8.4486C42.1604 9.01366 41.9655 9.78001 41.9655 10.5569H43.9655ZM44.1485 9.85381C44.232 9.76815 44.378 9.67667 44.714 9.67667V7.67667C43.9641 7.67667 43.2558 7.90455 42.7165 8.45761L44.1485 9.85381ZM44.714 9.67667H48.2708V7.67667H44.714V9.67667ZM48.2708 9.67667C48.6068 9.67667 48.7527 9.76815 48.8363 9.85381L50.2683 8.45761C49.729 7.90455 49.0207 7.67667 48.2708 7.67667V9.67667ZM48.8452 9.86282C48.9029 9.92051 49.0193 10.0883 49.0193 10.5569H51.0193C51.0193 9.78001 50.8244 9.01366 50.2594 8.4486L48.8452 9.86282ZM49.0193 10.5569V10.7126H51.0193V10.5569H49.0193ZM49.0193 10.7126C49.0193 10.7527 49.0139 10.7581 49.0197 10.7407C49.0227 10.7317 49.0281 10.7184 49.0372 10.7027C49.0463 10.6868 49.0575 10.6711 49.0705 10.6566L50.561 11.9902C50.8995 11.6118 51.0193 11.149 51.0193 10.7126H49.0193ZM49.0705 10.6566C49.1003 10.6232 49.1438 10.5907 49.1945 10.5698C49.242 10.5501 49.271 10.5509 49.2648 10.5509V12.5509C49.7375 12.5509 50.2084 12.3842 50.561 11.9902L49.0705 10.6566ZM49.2648 10.5509H47.5642V12.5509H49.2648V10.5509ZM47.5642 10.5509C47.6285 10.5509 47.6986 10.5615 47.7688 10.5861C47.8387 10.6105 47.8956 10.6442 47.9387 10.6777L46.7108 12.2564C46.9513 12.4435 47.2454 12.5509 47.5642 12.5509V10.5509ZM47.9387 10.6777C47.903 10.65 47.8621 10.6142 47.8163 10.5684L46.4021 11.9826C46.4999 12.0804 46.6027 12.1724 46.7108 12.2564L47.9387 10.6777ZM47.8566 10.6111C47.7544 10.4961 47.6422 10.3899 47.5195 10.2945L46.2916 11.8732C46.3127 11.8896 46.3362 11.9111 46.3617 11.9398L47.8566 10.6111ZM47.5195 10.2945C47.279 10.1075 46.9848 10 46.666 10V12C46.6018 12 46.5317 11.9894 46.4614 11.9648C46.3916 11.9404 46.3347 11.9067 46.2916 11.8732L47.5195 10.2945ZM46.666 10H46.3068V12H46.666V10ZM46.3068 10C46.0767 10 45.5868 10.0528 45.2655 10.5026L46.893 11.6651C46.6515 12.0031 46.3133 12 46.3068 12V10ZM45.2655 10.5026C45.0856 10.7545 45.0193 11.0341 45.0193 11.2874H47.0193C47.0193 11.3811 46.993 11.525 46.893 11.6651L45.2655 10.5026ZM45.0193 11.2874C45.0193 11.5175 45.0721 12.0074 45.5219 12.3287L46.6844 10.7012C47.0225 10.9427 47.0193 11.2809 47.0193 11.2874H45.0193ZM45.656 12.4094C45.7598 12.4613 45.8764 12.5102 45.9957 12.5561L46.7136 10.6894C46.6253 10.6555 46.5743 10.6325 46.5504 10.6206L45.656 12.4094ZM46.0788 12.584L48.7495 13.3504L49.3012 11.428L46.6305 10.6616L46.0788 12.584ZM48.6817 13.3284C48.8162 13.3776 48.8644 13.433 48.8939 13.4831L50.6178 12.469C50.3279 11.9762 49.8891 11.6404 49.3689 11.4501L48.6817 13.3284ZM48.9051 13.5015C48.9804 13.6236 49.0074 13.7303 49.0074 13.8383H51.0074C51.0074 13.3395 50.8666 12.8714 50.6067 12.4506L48.9051 13.5015ZM49.0074 13.852L49.0194 14.7263L51.0192 14.6989L51.0073 13.8246L49.0074 13.852ZM49.0193 14.7126C49.0193 15.1812 48.9029 15.349 48.8452 15.4067L50.2594 16.8209C50.8244 16.2558 51.0193 15.4895 51.0193 14.7126H49.0193ZM48.8363 15.4157C48.7527 15.5013 48.6068 15.5928 48.2708 15.5928V17.5928C49.0207 17.5928 49.729 17.3649 50.2683 16.8119L48.8363 15.4157ZM48.2708 15.5928H44.714V17.5928H48.2708V15.5928ZM44.714 15.5928C44.378 15.5928 44.232 15.5013 44.1485 15.4157L42.7165 16.8119C43.2558 17.3649 43.9641 17.5928 44.714 17.5928V15.5928ZM44.1396 15.4067C44.0819 15.349 43.9655 15.1812 43.9655 14.7126H41.9655C41.9655 15.4895 42.1604 16.2558 42.7254 16.8209L44.1396 15.4067ZM43.9655 14.7126V14.6407H41.9655V14.7126H43.9655ZM57.7622 16.3054L57.0362 15.6176L57.0264 15.628L57.0169 15.6386L57.7622 16.3054ZM55.4748 16.497L55.6591 15.5141L55.6291 15.5085L55.5988 15.5047L55.4748 16.497ZM55.0796 16.4371L55.2533 15.4523L55.2286 15.448L55.2036 15.4448L55.0796 16.4371ZM54.3371 16.4611L54.043 15.5053L54.0319 15.5087L54.0208 15.5124L54.3371 16.4611ZM51.2592 16.006L50.5448 16.7058L50.5521 16.7131L51.2592 16.006ZM51.2592 9.26349L50.5521 8.55635L50.5449 8.56371L51.2592 9.26349ZM54.0137 8.74853L53.7803 9.72091L53.8025 9.72623L53.8249 9.73053L54.0137 8.74853ZM54.5646 8.90421L54.9492 7.98114L54.9426 7.97839L54.936 7.97574L54.5646 8.90421ZM54.864 8.94014L54.7226 7.95013L54.7119 7.95177L54.864 8.94014ZM55.5227 8.77248L55.8168 9.72826L55.838 9.72171L55.859 9.71422L55.5227 8.77248ZM57.7622 8.94014L57.0169 9.60694L57.0264 9.61755L57.0362 9.62789L57.7622 8.94014ZM54.7203 13.9461V14.9461H55.5276L55.6978 14.1569L54.7203 13.9461ZM54.7203 11.3353L55.6978 11.1245L55.5276 10.3353H54.7203V11.3353ZM53.7143 11.3353V10.3353H52.5452L52.7264 11.4903L53.7143 11.3353ZM53.8101 12.6407H52.8101V12.6493L52.8103 12.658L53.8101 12.6407ZM53.7143 13.9461L52.7295 13.7723L52.5224 14.9461H53.7143V13.9461ZM56.9778 15.6946C56.9778 15.7293 56.9729 15.7288 56.9809 15.7061C56.9849 15.6947 56.9915 15.6798 57.0016 15.6632C57.0117 15.6465 57.0236 15.631 57.0362 15.6176L58.4881 16.9931C58.8452 16.6162 58.9778 16.1458 58.9778 15.6946H56.9778ZM57.0169 15.6386C57.0431 15.6093 57.0844 15.5769 57.1367 15.5548C57.1867 15.5337 57.2209 15.5329 57.2233 15.5329V17.5329C57.7 17.5329 58.1621 17.3581 58.5074 16.9722L57.0169 15.6386ZM57.2233 15.5329H55.834V17.5329H57.2233V15.5329ZM55.834 15.5329C55.7931 15.5329 55.7356 15.5285 55.6591 15.5141L55.2905 17.4799C55.4694 17.5134 55.6514 17.5329 55.834 17.5329V15.5329ZM55.5988 15.5047C55.4888 15.491 55.3737 15.4736 55.2533 15.4523L54.9058 17.4219C55.0569 17.4486 55.2052 17.4711 55.3507 17.4893L55.5988 15.5047ZM55.2036 15.4448C55.0326 15.4235 54.8593 15.4132 54.6844 15.4132V17.4132C54.7808 17.4132 54.8711 17.4188 54.9555 17.4294L55.2036 15.4448ZM54.6844 15.4132C54.474 15.4132 54.2571 15.4394 54.043 15.5053L54.6311 17.4169C54.6246 17.4189 54.6392 17.4132 54.6844 17.4132V15.4132ZM54.0208 15.5124C53.8656 15.5641 53.6935 15.5928 53.4987 15.5928V17.5928C53.8948 17.5928 54.2815 17.5337 54.6533 17.4098L54.0208 15.5124ZM53.4987 15.5928H52.9598V17.5928H53.4987V15.5928ZM52.9598 15.5928C52.389 15.5928 52.1129 15.4454 51.9663 15.2989L50.5521 16.7131C51.188 17.349 52.0456 17.5928 52.9598 17.5928V15.5928ZM51.9736 15.3062C51.8519 15.1819 51.6844 14.8732 51.6844 14.1497H49.6844C49.6844 15.1188 49.9001 16.0476 50.5449 16.7058L51.9736 15.3062ZM51.6844 14.1497V11.1198H49.6844V14.1497H51.6844ZM51.6844 11.1198C51.6844 10.3962 51.8519 10.0875 51.9736 9.96327L50.5449 8.56371C49.9001 9.22189 49.6844 10.1507 49.6844 11.1198H51.6844ZM51.9663 9.9706C52.1129 9.82405 52.389 9.67667 52.9598 9.67667V7.67667C52.0456 7.67667 51.188 7.92051 50.5521 8.55639L51.9663 9.9706ZM52.9598 9.67667H53.367V7.67667H52.9598V9.67667ZM53.367 9.67667C53.5298 9.67667 53.6662 9.69352 53.7803 9.72091L54.2471 7.77614C53.962 7.70773 53.6673 7.67667 53.367 7.67667V9.67667ZM53.8249 9.73053C53.9836 9.76106 54.1041 9.79706 54.1932 9.83269L54.936 7.97574C54.7057 7.88363 54.459 7.81583 54.2025 7.76652L53.8249 9.73053ZM54.18 9.82729C54.4474 9.93871 54.733 9.97206 55.0161 9.92851L54.7119 7.95177C54.7458 7.94656 54.7862 7.94495 54.8304 7.95026C54.8748 7.95558 54.915 7.9669 54.9492 7.98114L54.18 9.82729ZM55.0054 9.93009C55.1635 9.90751 55.3198 9.87387 55.474 9.82981L54.9246 7.90676C54.8553 7.92657 54.788 7.94084 54.7226 7.95019L55.0054 9.93009ZM55.474 9.82981C55.5918 9.79615 55.7061 9.76231 55.8168 9.72826L55.2286 7.8167C55.1317 7.84652 55.0303 7.87655 54.9246 7.90676L55.474 9.82981ZM55.859 9.71422C55.8726 9.70937 55.8771 9.70883 55.8732 9.70957C55.8692 9.71035 55.8556 9.7126 55.834 9.7126V7.7126C55.6 7.7126 55.3813 7.76112 55.1863 7.83074L55.859 9.71422ZM55.834 9.7126H57.2233V7.7126H55.834V9.7126ZM57.2233 9.7126C57.2209 9.7126 57.1867 9.71184 57.1367 9.69073C57.0844 9.66866 57.0431 9.63622 57.0169 9.60694L58.5074 8.27335C58.1621 7.88738 57.7 7.7126 57.2233 7.7126V9.7126ZM57.0362 9.62789C57.0236 9.61451 57.0117 9.59907 57.0016 9.58237C56.9915 9.56576 56.9849 9.55083 56.9809 9.53943C56.9729 9.51674 56.9778 9.51627 56.9778 9.55092H58.9778C58.9778 9.09968 58.8452 8.62932 58.4881 8.2524L57.0362 9.62789ZM56.9778 9.55092V15.6946H58.9778V9.55092H56.9778ZM55.6978 14.1569C55.8021 13.6733 55.852 13.1669 55.852 12.6407L53.852 12.6407C53.852 13.0407 53.8141 13.4046 53.7428 13.7353L55.6978 14.1569ZM55.852 12.6407C55.852 12.1145 55.8021 11.6082 55.6978 11.1245L53.7428 11.5462C53.8141 11.8769 53.852 12.2408 53.852 12.6407L55.852 12.6407ZM54.7203 10.3353L53.7143 10.3353V12.3353L54.7203 12.3353V10.3353ZM52.7264 11.4903C52.7813 11.8404 52.8101 12.2233 52.8101 12.6407L54.8101 12.6407C54.8101 12.132 54.775 11.6446 54.7022 11.1804L52.7264 11.4903ZM52.8103 12.658C52.8173 13.0645 52.789 13.4352 52.7295 13.7723L54.6991 14.1199C54.7833 13.6427 54.8189 13.1431 54.81 12.6235L52.8103 12.658ZM53.7143 14.9461H54.7203V12.9461L53.7143 12.9461V14.9461Z" fill="#FF9D02"/>
</svg>
