<svg width="8" height="8" viewBox="0 0 8 8" fill="none" xmlns="http://www.w3.org/2000/svg">
<path d="M7.03893 6.37903L7.03834 6.37844L4.64752 3.99123L7.03834 1.60402L7.04359 1.59877L7.0483 1.59303C7.1199 1.5058 7.15649 1.39504 7.15095 1.28232C7.14542 1.16959 7.09815 1.06296 7.01835 0.983155C6.93854 0.903351 6.83191 0.856084 6.71918 0.850548C6.60646 0.845011 6.49571 0.881602 6.40847 0.953201L6.40273 0.957911L6.39748 0.963164L4.01027 3.35398L1.62306 0.963164L1.61781 0.957911L1.61207 0.953201C1.52483 0.881602 1.41408 0.845011 1.30136 0.850548C1.18863 0.856084 1.082 0.903351 1.00219 0.983155C0.922389 1.06296 0.875122 1.16959 0.869586 1.28232C0.86405 1.39504 0.90064 1.5058 0.97224 1.59303L0.97695 1.59877L0.982203 1.60402L3.37302 3.99123L0.982203 6.37844L0.982201 6.37844L0.981615 6.37903C0.8973 6.46416 0.85 6.57913 0.85 6.69895C0.85 6.81877 0.8973 6.93374 0.981615 7.01887L0.98159 7.01889L0.983921 7.02115C1.0694 7.1038 1.18365 7.15 1.30255 7.15C1.42145 7.15 1.5357 7.1038 1.62118 7.02115L1.6212 7.02116L1.62306 7.0193L4.01027 4.62849L6.39748 7.0193L6.39747 7.01931L6.39936 7.02115C6.48484 7.1038 6.59909 7.15 6.71799 7.15C6.83689 7.15 6.95114 7.1038 7.03662 7.02115L7.03664 7.02117L7.03893 7.01887C7.12324 6.93374 7.17054 6.81877 7.17054 6.69895C7.17054 6.57913 7.12324 6.46416 7.03893 6.37903Z" fill="#616161" stroke="#616161" stroke-width="0.3"/>
</svg>
