<svg width="23" height="23" viewBox="0 0 23 23" fill="none" xmlns="http://www.w3.org/2000/svg">
<path d="M22.0903 20.3391L22.0897 20.3385L13.2365 11.4684L22.0897 2.59826L22.095 2.59301L22.0997 2.58726C22.2953 2.34803 22.3953 2.04441 22.3802 1.73545C22.365 1.42649 22.2359 1.13413 22.0178 0.915262C21.7997 0.696377 21.5081 0.566649 21.1998 0.551454C20.8914 0.536259 20.5886 0.636694 20.3501 0.833104L20.3443 0.837825L20.3391 0.843089L11.5 9.72587L2.66081 0.843089L2.65557 0.837825L2.64984 0.833104C2.41134 0.636694 2.10848 0.536259 1.80015 0.551454C1.49182 0.566649 1.20025 0.696377 0.982108 0.915262C0.763983 1.13413 0.634874 1.4265 0.619752 1.73545C0.60463 2.0444 0.704566 2.34803 0.90024 2.58726L0.904939 2.59301L0.910181 2.59826L9.76338 11.4684L0.910179 20.3385L0.909594 20.3391C0.679142 20.5726 0.549951 20.8878 0.549951 21.2162C0.549951 21.5446 0.679142 21.8598 0.909594 22.0933L0.911896 22.0955C1.14615 22.3228 1.45936 22.45 1.78542 22.45C2.11148 22.45 2.42468 22.3228 2.65894 22.0955L2.65895 22.0955L2.66081 22.0937L11.5 13.2109L20.3391 22.0937L20.3391 22.0937L20.341 22.0955C20.5752 22.3228 20.8884 22.45 21.2145 22.45C21.5405 22.45 21.8538 22.3228 22.088 22.0955L22.0903 22.0933C22.3208 21.8598 22.45 21.5446 22.45 21.2162C22.45 20.8878 22.3208 20.5726 22.0903 20.3391Z" fill="#242424" stroke="#616161" stroke-width="0.3"/>
</svg>
