<svg width="10" height="10" viewBox="0 0 10 10" fill="none" xmlns="http://www.w3.org/2000/svg">
<path id="icon_X_Vector" d="M9.18033 8.0313L9.17876 8.02973L6.13275 4.98831L9.17876 1.94689L9.19277 1.9329L9.20533 1.9176C9.33229 1.7629 9.39718 1.5665 9.38736 1.36661C9.37754 1.16672 9.29373 0.977632 9.15221 0.836118C9.0107 0.694605 8.82161 0.610788 8.62172 0.600971C8.42183 0.591154 8.22543 0.656038 8.07073 0.783003L8.05543 0.795562L8.04144 0.809571L5.00002 3.85558L1.9586 0.809571L1.94461 0.795562L1.92931 0.783003C1.77461 0.656038 1.57821 0.591154 1.37833 0.600971C1.17844 0.610788 0.989345 0.694605 0.847831 0.836118C0.706318 0.977632 0.622501 1.16672 0.612684 1.36661C0.602866 1.5665 0.66775 1.7629 0.794716 1.9176L0.807275 1.9329L0.821284 1.94689L3.86729 4.98831L0.821284 8.02973L0.82128 8.02973L0.819716 8.03131C0.670203 8.18226 0.586328 8.38614 0.586328 8.5986C0.586328 8.81107 0.670203 9.01494 0.819716 9.1659L0.81965 9.16596L0.825865 9.17197C0.977131 9.31824 1.17931 9.4 1.38973 9.4C1.60014 9.4 1.80233 9.31824 1.95359 9.17197L1.95363 9.17202L1.9586 9.16705L5.00002 6.12104L8.04144 9.16705L8.0414 9.16709L8.04645 9.17197C8.19772 9.31824 8.3999 9.4 8.61031 9.4C8.82073 9.4 9.02291 9.31824 9.17418 9.17197L9.17424 9.17204L9.18033 9.1659C9.32984 9.01494 9.41371 8.81107 9.41371 8.5986C9.41371 8.38614 9.32984 8.18226 9.18033 8.0313Z" fill="#3D3D3D" stroke="#3D3D3D" stroke-width="0.8"/>
</svg>
