<svg width="12" height="13" viewBox="0 0 12 13" fill="none" xmlns="http://www.w3.org/2000/svg">
<path d="M10.6667 7.16667V10.5C10.6667 10.8667 10.3667 11.1667 10 11.1667H2C1.63333 11.1667 1.33333 10.8667 1.33333 10.5V7.16667C1.33333 6.8 1.03333 6.5 0.666667 6.5C0.3 6.5 0 6.8 0 7.16667V11.1667C0 11.9 0.6 12.5 1.33333 12.5H10.6667C11.4 12.5 12 11.9 12 11.1667V7.16667C12 6.8 11.7 6.5 11.3333 6.5C10.9667 6.5 10.6667 6.8 10.6667 7.16667ZM6.66667 6.94667L7.92 5.69333C7.98172 5.63161 8.05499 5.58265 8.13564 5.54925C8.21628 5.51585 8.30271 5.49865 8.39 5.49865C8.47729 5.49865 8.56372 5.51585 8.64436 5.54925C8.72501 5.58265 8.79828 5.63161 8.86 5.69333C8.92172 5.75505 8.97068 5.82833 9.00408 5.90897C9.03749 5.98961 9.05468 6.07605 9.05468 6.16333C9.05468 6.25062 9.03749 6.33705 9.00408 6.4177C8.97068 6.49834 8.92172 6.57161 8.86 6.63333L6.46667 9.02667C6.40499 9.08847 6.33173 9.1375 6.25108 9.17096C6.17043 9.20441 6.08398 9.22163 5.99667 9.22163C5.90935 9.22163 5.8229 9.20441 5.74225 9.17096C5.6616 9.1375 5.58834 9.08847 5.52667 9.02667L3.13333 6.63333C3.00868 6.50868 2.93865 6.33962 2.93865 6.16333C2.93865 5.98705 3.00868 5.81799 3.13333 5.69333C3.25799 5.56868 3.42705 5.49865 3.60333 5.49865C3.77962 5.49865 3.94868 5.56868 4.07333 5.69333L5.33333 6.94667V1.16667C5.33333 0.8 5.63333 0.5 6 0.5C6.36667 0.5 6.66667 0.8 6.66667 1.16667V6.94667Z" fill="white"/>
</svg>
