<svg width="22" height="22" viewBox="0 0 22 22" fill="none" xmlns="http://www.w3.org/2000/svg">
<path d="M3.15207 4.45683L2.90536 4.4164C2.88286 4.55373 2.89084 4.69036 2.92482 4.81838C2.99001 5.06396 3.15104 5.27833 3.37667 5.40785C3.45847 5.45487 3.54568 5.48895 3.63525 5.51006L6.48036 6.22134C6.99702 6.3505 7.52056 6.03637 7.64973 5.51972C7.77889 5.00306 7.46477 4.47952 6.94811 4.35036L6.00534 4.11467C7.49044 3.18127 9.21963 2.67675 10.9988 2.67872H10.9991C12.645 2.67872 14.2546 3.16678 15.623 4.08113C16.9915 4.99549 18.058 6.29511 18.6878 7.81563C19.3177 9.33616 19.4825 11.0093 19.1614 12.6235C18.8403 14.2377 18.0478 15.7204 16.884 16.8842C15.7202 18.0479 14.2375 18.8405 12.6233 19.1615C11.0091 19.4826 9.336 19.3178 7.81547 18.688C6.29494 18.0582 4.99532 16.9916 4.08096 15.6232C3.1666 14.2547 2.67856 12.6459 2.67856 11.0001C2.67856 10.4675 2.24684 10.0358 1.71428 10.0358C1.18172 10.0358 0.75 10.4675 0.75 11.0001C0.75 13.0273 1.35115 15.009 2.47742 16.6946C3.6037 18.3802 5.20452 19.694 7.07744 20.4698C8.95037 21.2456 11.0113 21.4485 12.9996 21.053C14.9879 20.6575 16.8142 19.6813 18.2477 18.2479C19.6812 16.8144 20.6574 14.988 21.0529 12.9997C21.4484 11.0114 21.2454 8.95053 20.4696 7.07761C19.6938 5.20468 18.3801 3.60386 16.6945 2.47759C15.0091 1.35144 13.0276 0.750298 11.0006 0.750165M3.15207 4.45683L2.90529 4.41686C2.91034 4.38569 2.91692 4.3547 2.92505 4.32402L3.63591 1.48058C3.76507 0.96392 4.28861 0.649796 4.80527 0.77896C5.32193 0.908124 5.63605 1.43166 5.50689 1.94832L5.44252 2.20578C7.12523 1.25716 9.03764 0.74806 11.0006 0.750165M3.15207 4.45683C3.1559 4.43318 3.16092 4.4097 3.16713 4.38647L3.69412 5.26708C3.62717 5.25145 3.56208 5.22609 3.50113 5.19103C3.33434 5.09529 3.21482 4.93642 3.16646 4.75424C3.14132 4.65954 3.13541 4.55854 3.15207 4.45683ZM11.0006 0.750165L11.0003 1.00016M11.0006 0.750165C11.0005 0.750165 11.0004 0.750164 11.0003 0.750164L11.0003 1.00016M11.0003 1.00016C8.99981 0.99802 7.05297 1.53885 5.35814 2.54332L10.9991 2.42872C12.6944 2.42872 14.3524 2.93143 15.7619 3.87326C17.1715 4.81509 18.2701 6.15375 18.9188 7.71996C19.5676 9.28617 19.7373 11.0096 19.4066 12.6723C19.0758 14.3349 18.2595 15.8622 17.0608 17.0609C15.8621 18.2597 14.3348 19.076 12.6721 19.4067C11.0094 19.7375 9.28601 19.5677 7.7198 18.919C6.15359 18.2702 4.81493 17.1716 3.87309 15.7621C2.93126 14.3525 2.42856 12.6953 2.42856 11.0001C2.42856 10.6056 2.10877 10.2858 1.71428 10.2858C1.31979 10.2858 1 10.6056 1 11.0001C1 12.9779 1.58648 14.9113 2.68529 16.5557C3.78409 18.2002 5.34587 19.4819 7.17311 20.2388C9.00036 20.9957 11.011 21.1937 12.9508 20.8078C14.8906 20.422 16.6724 19.4696 18.0709 18.0711C19.4694 16.6726 20.4218 14.8908 20.8077 12.951C21.1935 11.0112 20.9955 9.00052 20.2386 7.17328C19.4818 5.34603 18.2 3.78426 16.5556 2.68545C14.9112 1.58672 12.978 1.00025 11.0003 1.00016Z" fill="#FF9D02" stroke="#FF9D02" stroke-width="0.5" stroke-linecap="round" stroke-linejoin="round"/>
</svg>
