<svg width="current" height="current" viewBox="0 0 40 41" fill="none" xmlns="http://www.w3.org/2000/svg">
<path d="M23 15.2109C23.0927 15.3034 23.1663 15.4133 23.2165 15.5343C23.2667 15.6552 23.2925 15.7849 23.2925 15.9159C23.2925 16.0468 23.2667 16.1765 23.2165 16.2975C23.1663 16.4185 23.0927 16.5284 23 16.6209L19.12 20.5009L23 24.3809C23.0926 24.4735 23.1661 24.5834 23.2162 24.7043C23.2663 24.8253 23.2921 24.9549 23.2921 25.0859C23.2921 25.2168 23.2663 25.3465 23.2162 25.4674C23.1661 25.5884 23.0926 25.6983 23 25.7909C22.9075 25.8835 22.7975 25.9569 22.6766 26.007C22.5556 26.0571 22.426 26.0829 22.295 26.0829C22.1641 26.0829 22.0345 26.0571 21.9135 26.007C21.7925 25.9569 21.6826 25.8835 21.59 25.7909L17 21.2009C16.9073 21.1084 16.8338 20.9985 16.7836 20.8775C16.7334 20.7565 16.7076 20.6268 16.7076 20.4959C16.7076 20.3649 16.7334 20.2352 16.7836 20.1143C16.8338 19.9933 16.9073 19.8834 17 19.7909L21.59 15.2009C21.97 14.8209 22.61 14.8209 23 15.2109Z" fill="#3D3D3D"/>
</svg>
