<svg width="50" height="50" viewBox="0 0 50 50" fill="none" xmlns="http://www.w3.org/2000/svg">
<circle cx="25" cy="25" r="25" fill="#EAEAEA"/>
<path d="M25.6066 17.3934L23.4853 19.5147C23.0964 19.9036 23.0964 20.54 23.4853 20.9289C23.8742 21.3178 24.5106 21.3178 24.8995 20.9289L27.0208 18.8076C28.1875 17.6409 30.0967 17.6409 31.2635 18.8076C32.4302 19.9743 32.4302 21.8835 31.2635 23.0503L29.1421 25.1716C28.7532 25.5605 28.7532 26.1969 29.1421 26.5858C29.531 26.9747 30.1674 26.9747 30.5563 26.5858L32.6777 24.4645C34.6293 22.5129 34.6293 19.345 32.6777 17.3934C30.7261 15.4418 27.5582 15.4418 25.6066 17.3934ZM22.7782 27.2929C23.1671 27.6818 23.8035 27.6818 24.1924 27.2929L28.435 23.0503C28.8239 22.6613 28.8239 22.0249 28.435 21.636C28.0461 21.2471 27.4097 21.2471 27.0208 21.636L22.7782 25.8787C22.3893 26.2676 22.3893 26.904 22.7782 27.2929ZM26.3137 28L24.1924 30.1213C23.0257 31.288 21.1165 31.288 19.9497 30.1213C18.783 28.9546 18.783 27.0454 19.9497 25.8787L22.0711 23.7574C22.46 23.3685 22.46 22.7321 22.0711 22.3431C21.6822 21.9542 21.0458 21.9542 20.6569 22.3431L18.5355 24.4645C16.5839 26.4161 16.5839 29.5839 18.5355 31.5355C20.4871 33.4871 23.655 33.4871 25.6066 31.5355L27.7279 29.4142C28.1168 29.0253 28.1168 28.3889 27.7279 28C27.339 27.6111 26.7026 27.6111 26.3137 28Z" fill="#3D3D3D"/>
</svg>
