<svg width="33" height="33" viewBox="0 0 33 33" fill="none" xmlns="http://www.w3.org/2000/svg">
<path d="M5.84993 27.8194C6.72861 28.698 8.15323 28.698 9.03191 27.8194C9.91059 26.9407 9.91059 25.5161 9.03191 24.6374C8.15323 23.7587 6.72861 23.7587 5.84993 24.6374C4.97125 25.5161 4.97125 26.9407 5.84993 27.8194Z" fill="#FF9D02" fill-opacity="0.5"/>
<path d="M23.9403 11.1175C25.2421 12.4192 27.3526 12.4192 28.6544 11.1175C29.9561 9.81571 29.9561 7.70516 28.6544 6.40341C27.3526 5.10166 25.2421 5.10166 23.9403 6.40341C22.6386 7.70516 22.6386 9.81571 23.9403 11.1175Z" fill="#FF9D02"/>
<path d="M1.76788 19.3033C2.74419 20.2796 4.3271 20.2796 5.30341 19.3033C6.27972 18.327 6.27972 16.7441 5.30341 15.7678C4.3271 14.7915 2.74419 14.7915 1.76788 15.7678C0.791567 16.7441 0.791567 18.327 1.76788 19.3033Z" fill="#FF9D02" fill-opacity="0.6"/>
<path d="M29.1425 18.182C29.7283 18.7678 30.678 18.7678 31.2638 18.182C31.8496 17.5962 31.8496 16.6464 31.2638 16.0607C30.678 15.4749 29.7283 15.4749 29.1425 16.0607C28.5567 16.6464 28.5567 17.5962 29.1425 18.182Z" fill="#FF9D02" fill-opacity="0.2"/>
<path d="M5.49637 10.88C6.57032 11.954 8.31152 11.954 9.38546 10.88C10.4594 9.80607 10.4594 8.06487 9.38546 6.99093C8.31152 5.91699 6.57032 5.91699 5.49637 6.99093C4.42243 8.06487 4.42243 9.80608 5.49637 10.88Z" fill="#FF9D02" fill-opacity="0.8"/>
<path d="M25.0599 27.7587C25.7433 28.4421 26.8514 28.4421 27.5348 27.7587C28.2182 27.0753 28.2182 25.9672 27.5348 25.2838C26.8514 24.6004 25.7433 24.6004 25.0599 25.2838C24.3765 25.9672 24.3765 27.0753 25.0599 27.7587Z" fill="#FF9D02" fill-opacity="0.3"/>
<path d="M14.1214 6.36396C15.2929 7.53553 17.1924 7.53553 18.364 6.36396C19.5356 5.19239 19.5356 3.29289 18.364 2.12132C17.1924 0.949747 15.2929 0.949747 14.1214 2.12132C12.9498 3.29289 12.9498 5.19239 14.1214 6.36396Z" fill="#FF9D02" fill-opacity="0.9"/>
<path d="M14.8285 30.9099C15.6095 31.6909 16.8758 31.6909 17.6569 30.9099C18.4379 30.1288 18.4379 28.8625 17.6569 28.0814C16.8758 27.3004 15.6095 27.3004 14.8285 28.0815C14.0474 28.8625 14.0474 30.1288 14.8285 30.9099Z" fill="#FF9D02" fill-opacity="0.4"/>
</svg>
