<svg width="12" height="13" viewBox="0 0 12 13" fill="none" xmlns="http://www.w3.org/2000/svg">
<path fill-rule="evenodd" clip-rule="evenodd" d="M9.94915 9.80725C10.9039 8.81925 11.4914 7.47399 11.4914 5.99153C11.4914 2.95864 9.03271 0.5 5.99983 0.5C2.96694 0.5 0.508301 2.95864 0.508301 5.99153C0.508301 9.02441 2.96694 11.4831 5.99983 11.4831C6.95908 11.4831 7.86088 11.2371 8.64563 10.8048L10.1025 12.2617C10.4202 12.5794 10.9354 12.5794 11.2531 12.2617C11.5708 11.944 11.5708 11.4289 11.2531 11.1112L9.94915 9.80725ZM9.96593 5.99153C9.96593 8.18194 8.19024 9.95763 5.99983 9.95763C3.80941 9.95763 2.03372 8.18194 2.03372 5.99153C2.03372 3.80111 3.80941 2.02542 5.99983 2.02542C8.19024 2.02542 9.96593 3.80111 9.96593 5.99153Z" fill="white"/>
</svg>
