<svg width="40" height="40" viewBox="0 0 40 40" fill="none" xmlns="http://www.w3.org/2000/svg">
<path fill-rule="evenodd" clip-rule="evenodd" d="M20 40C31.0457 40 40 31.0457 40 20C40 8.9543 31.0457 0 20 0C8.9543 0 0 8.9543 0 20C0 31.0457 8.9543 40 20 40ZM18 15C18 13.8955 18.8955 13 20 13C21.1045 13 22 13.8955 22 15V20.5C22 21.6045 21.1045 22.5 20 22.5C18.8955 22.5 18 21.6045 18 20.5V15ZM18 26C18 24.8955 18.8955 24 20 24C21.1045 24 22 24.8955 22 26C22 27.1045 21.1045 28 20 28C18.8955 28 18 27.1045 18 26Z" fill="#FF9D02"/>
</svg>
