<svg width="14" height="14" viewBox="0 0 14 14" fill="none" xmlns="http://www.w3.org/2000/svg">
<g id="?">
<path id="Vector" d="M7 0C10.8661 0 14 3.1339 14 7C14 10.8661 10.8661 14 7 14C3.1339 14 0 10.8661 0 7C0 3.1339 3.1339 0 7 0ZM7 9.8C6.81435 9.8 6.6363 9.87375 6.50503 10.005C6.37375 10.1363 6.3 10.3143 6.3 10.5C6.3 10.6857 6.37375 10.8637 6.50503 10.995C6.6363 11.1263 6.81435 11.2 7 11.2C7.18565 11.2 7.3637 11.1263 7.49497 10.995C7.62625 10.8637 7.7 10.6857 7.7 10.5C7.7 10.3143 7.62625 10.1363 7.49497 10.005C7.3637 9.87375 7.18565 9.8 7 9.8ZM7 3.15C6.32701 3.15 5.68159 3.41734 5.20572 3.89322C4.72984 4.36909 4.4625 5.01451 4.4625 5.6875C4.4625 5.87315 4.53625 6.0512 4.66753 6.18247C4.7988 6.31375 4.97685 6.3875 5.1625 6.3875C5.34815 6.3875 5.5262 6.31375 5.65747 6.18247C5.78875 6.0512 5.8625 5.87315 5.8625 5.6875C5.86273 5.48103 5.91916 5.27851 6.02573 5.10166C6.1323 4.92482 6.285 4.78031 6.46744 4.68364C6.64989 4.58698 6.85521 4.54179 7.06138 4.55293C7.26756 4.56408 7.46681 4.63112 7.63778 4.74689C7.80874 4.86266 7.94498 5.02278 8.03187 5.21008C8.11876 5.39738 8.15303 5.6048 8.13101 5.8101C8.10899 6.01539 8.0315 6.21082 7.90686 6.37544C7.78222 6.54005 7.61513 6.66763 7.4235 6.7445C6.9503 6.9335 6.3 7.4179 6.3 8.225V8.4C6.3 8.58565 6.37375 8.7637 6.50503 8.89497C6.6363 9.02625 6.81435 9.1 7 9.1C7.18565 9.1 7.3637 9.02625 7.49497 8.89497C7.62625 8.7637 7.7 8.58565 7.7 8.4C7.7 8.2292 7.735 8.1438 7.8827 8.071L7.9436 8.043C8.49017 7.82312 8.94323 7.41997 9.22511 6.90264C9.507 6.38532 9.60014 5.78605 9.48859 5.20757C9.37703 4.62909 9.06771 4.10743 8.61367 3.73203C8.15963 3.35663 7.58914 3.15086 7 3.15Z" fill="#FF9D02"/>
</g>
</svg>
