<svg width="10" height="10" viewBox="0 0 10 10" fill="none" xmlns="http://www.w3.org/2000/svg">
<path d="M8.98957 8.20741L8.98898 8.20682L5.77661 4.98831L8.98898 1.7698L8.99423 1.76454L8.99892 1.7588C9.08622 1.65206 9.13078 1.51665 9.12404 1.3789C9.11729 1.24115 9.05973 1.11074 8.96239 1.01308C8.86505 0.915397 8.73488 0.857458 8.59717 0.850671C8.45946 0.843885 8.32423 0.888747 8.21778 0.976412L8.21205 0.981132L8.20681 0.986396L5 4.20904L1.79319 0.986396L1.78795 0.981132L1.78222 0.976411C1.67577 0.888747 1.54054 0.843885 1.40283 0.850671C1.26512 0.857458 1.13495 0.915397 1.03761 1.01308C0.940273 1.11074 0.882707 1.24115 0.875965 1.3789C0.869223 1.51665 0.913775 1.65206 1.00108 1.7588L1.00577 1.76454L1.01102 1.7698L4.22339 4.98831L1.01102 8.20682L1.01102 8.20682L1.01043 8.20741C0.907598 8.31159 0.85 8.45219 0.85 8.5986C0.85 8.74502 0.907598 8.88561 1.01043 8.98979L1.01041 8.98981L1.01273 8.99207C1.11708 9.09332 1.25666 9.15 1.40202 9.15C1.54739 9.15 1.68697 9.09332 1.79132 8.99207L1.79133 8.99209L1.79319 8.99022L5 5.76758L8.20681 8.99022L8.20679 8.99024L8.20868 8.99207C8.31304 9.09332 8.45261 9.15 8.59798 9.15C8.74334 9.15 8.88292 9.09332 8.98727 8.99207L8.98729 8.9921L8.98957 8.98979C9.0924 8.88561 9.15 8.74502 9.15 8.5986C9.15 8.45219 9.0924 8.31159 8.98957 8.20741Z" fill="#3D3D3D" stroke="#3D3D3D" stroke-width="0.3"/>
</svg>
