<svg width="40" height="40" viewBox="0 0 40 40" fill="none" xmlns="http://www.w3.org/2000/svg">
<path fill-rule="evenodd" clip-rule="evenodd" d="M20 40C31.0457 40 40 31.0457 40 20C40 8.9543 31.0457 0 20 0C8.9543 0 0 8.9543 0 20C0 31.0457 8.9543 40 20 40ZM26.6709 24.3207C26.8335 24.2533 26.9811 24.1545 27.1054 24.03C27.6293 23.5061 27.6293 22.6463 27.1188 22.1358L20.9526 15.9696C20.8284 15.8451 20.6807 15.7463 20.5182 15.6789C20.3557 15.6115 20.1815 15.5768 20.0055 15.5768C19.8296 15.5768 19.6554 15.6115 19.4929 15.6789C19.3304 15.7463 19.1827 15.8451 19.0585 15.9696L12.8923 22.1358C12.7679 22.2602 12.6693 22.4078 12.602 22.5703C12.5346 22.7328 12.5 22.907 12.5 23.0829C12.5 23.2588 12.5346 23.433 12.602 23.5955C12.6693 23.758 12.7679 23.9056 12.8923 24.03C13.0167 24.1544 13.1643 24.253 13.3268 24.3203C13.4893 24.3876 13.6635 24.4223 13.8394 24.4223C14.0153 24.4223 14.1894 24.3876 14.3519 24.3203C14.5145 24.253 14.6621 24.1544 14.7865 24.03L19.9988 18.8176L25.2112 24.03C25.3355 24.1545 25.4831 24.2533 25.6456 24.3207C25.8081 24.3882 25.9823 24.4229 26.1583 24.4229C26.3342 24.4229 26.5084 24.3882 26.6709 24.3207Z" fill="#FF9D02"/>
</svg>
