<svg width="50" height="50" viewBox="0 0 50 50" fill="none" xmlns="http://www.w3.org/2000/svg">
<circle cx="25" cy="25" r="25" fill="#EAEAEA"/>
<path d="M35 18.912C34.2639 19.2467 33.4704 19.4665 32.6482 19.5717C33.4895 19.065 34.1396 18.262 34.4455 17.2964C33.652 17.7744 32.7725 18.109 31.8451 18.3002C31.0899 17.478 30.0287 17 28.8241 17C26.5774 17 24.7419 18.8356 24.7419 21.1013C24.7419 21.4264 24.7801 21.7419 24.847 22.0382C21.4436 21.8662 18.413 20.2314 16.3958 17.7553C16.0421 18.3576 15.8413 19.065 15.8413 19.8107C15.8413 21.2352 16.5583 22.4971 17.6673 23.2141C16.9885 23.2141 16.3576 23.0229 15.8031 22.7361V22.7648C15.8031 24.7533 17.218 26.4168 19.0918 26.7897C18.4902 26.9543 17.8586 26.9772 17.2467 26.8566C17.5063 27.6716 18.0149 28.3847 18.7008 28.8957C19.3867 29.4067 20.2155 29.69 21.0707 29.7055C19.6211 30.8532 17.8241 31.4735 15.9751 31.4646C15.6501 31.4646 15.325 31.4455 15 31.4073C16.8164 32.5736 18.9771 33.2524 21.2906 33.2524C28.8241 33.2524 32.9637 27 32.9637 21.5794C32.9637 21.3977 32.9637 21.2256 32.9541 21.044C33.7572 20.4704 34.4455 19.7438 35 18.912Z" fill="#3D3D3D"/>
</svg>
