<svg width="14" height="32" viewBox="0 0 14 32" fill="none" xmlns="http://www.w3.org/2000/svg">
<path d="M0.783336 0.950557C0.534467 0.830897 0.429722 0.532145 0.549382 0.283275C0.669042 0.0344058 0.967794 -0.0703394 1.21666 0.0493206L0.783336 0.950557ZM12.387 13.7569L12.8711 13.6318L12.387 13.7569ZM8.44424 31.4215C8.18396 31.5137 7.89818 31.3775 7.80593 31.1172L6.30262 26.8757C6.21037 26.6155 6.34658 26.3297 6.60686 26.2374C6.86713 26.1452 7.15292 26.2814 7.24516 26.5417L8.58145 30.3119L12.3516 28.9756C12.6119 28.8833 12.8977 29.0196 12.9899 29.2798C13.0822 29.5401 12.946 29.8259 12.6857 29.9181L8.44424 31.4215ZM1.21666 0.0493206C5.53563 2.12594 11.1949 7.14363 12.8711 13.6318L11.9029 13.8819C10.3216 7.76103 4.92406 2.94147 0.783336 0.950557L1.21666 0.0493206ZM12.8711 13.6318C13.7103 16.8798 13.2191 20.1036 12.2549 23.0816C11.2934 26.0512 9.84075 28.8319 8.72856 31.1653L7.82585 30.735C8.95968 28.3562 10.3684 25.6617 11.3035 22.7736C12.236 19.8937 12.6767 16.877 11.9029 13.8819L12.8711 13.6318Z" fill="#FF9D02"/>
</svg>
