<svg width="33" height="16" viewBox="0 0 33 16" fill="none" xmlns="http://www.w3.org/2000/svg">
<path d="M0.874661 12.6849C0.623912 12.5692 0.326871 12.6787 0.211201 12.9295C0.0955309 13.1802 0.205034 13.4773 0.455783 13.5929L0.874661 12.6849ZM30.2348 0.816979C30.1094 0.570966 29.8083 0.473212 29.5622 0.59864L25.5532 2.64261C25.3072 2.76803 25.2095 3.06915 25.3349 3.31516C25.4603 3.56117 25.7614 3.65893 26.0074 3.5335L29.571 1.71664L31.3879 5.28021C31.5133 5.52622 31.8144 5.62398 32.0604 5.49855C32.3064 5.37312 32.4042 5.07201 32.2788 4.826L30.2348 0.816979ZM0.455783 13.5929C4.17528 15.3087 10.1273 16.7591 15.9102 15.5052C21.7365 14.2418 27.3283 10.2442 30.2649 1.19848L29.3138 0.889697C26.4836 9.60757 21.1659 13.3423 15.6982 14.5279C10.187 15.7229 4.46038 14.339 0.874661 12.6849L0.455783 13.5929Z" fill="#FF9D02"/>
</svg>
